<?xml version="1.0" encoding="UTF-8"?>
<!-- Generated by Pixelmator Pro 3.6.8 -->
<svg width="9166" height="6108" viewBox="0 0 9166 6108" xmlns="http://www.w3.org/2000/svg">
    <g id="Objects">
        <g id="g1">
            <g id="g2">
                <path id="path1" fill="#f9c900" stroke="none" d="M 5412.925781 3035.369629 C 5346.925781 3105.203125 5262.175781 3164.952881 5169.67627 3213.536377 C 4968.300781 3319.369873 4823.342285 3509.827881 4782.759277 3733.661133 C 4774.092773 3781.411133 4760.425781 3827.036377 4739.675781 3865.994629 C 4728.009766 3867.286377 4716.217773 3868.786377 4704.342773 3870.536621 C 4324.092773 3925.786621 3790.675781 3871.994385 3705.800781 3762.827881 C 3673.925781 3721.869629 3667.551025 3628.244385 3671.384277 3530.703125 C 3678.134277 3357.786377 3596.759277 3193.328125 3457.134277 3091.161377 C 3161.092529 2874.536377 2846.509277 2454.703125 2931.926025 1892.744629 C 3018.300781 1324.328125 3398.675781 867.328125 4116.884277 790.953125 C 4688.592773 730.119629 5288.509277 1028.911621 5550.80127 1540.536133 C 5813.092773 2052.161377 5807.759277 2617.453125 5412.925781 3035.369629 Z"/>
            </g>
            <path id="path2" fill="none" stroke="none" d="M 5412.925781 3035.369629 C 5346.925781 3105.203125 5262.175781 3164.952881 5169.67627 3213.536377 C 4968.300781 3319.369873 4823.342285 3509.827881 4782.759277 3733.661133 C 4774.092773 3781.411133 4760.425781 3827.036377 4739.675781 3865.994629 C 4728.009766 3867.286377 4716.217773 3868.786377 4704.342773 3870.536621 C 4324.092773 3925.786621 3790.675781 3871.994385 3705.800781 3762.827881 C 3673.925781 3721.869629 3667.551025 3628.244385 3671.384277 3530.703125 C 3678.134277 3357.786377 3596.759277 3193.328125 3457.134277 3091.161377 C 3161.092529 2874.536377 2846.509277 2454.703125 2931.926025 1892.744629 C 3018.300781 1324.328125 3398.675781 867.328125 4116.884277 790.953125 C 4688.592773 730.119629 5288.509277 1028.911621 5550.80127 1540.536133 C 5813.092773 2052.161377 5807.759277 2617.453125 5412.925781 3035.369629 Z"/>
            <path id="path3" fill="#000000" stroke="none" d="M 355.669647 4610.948242 C 608.289978 4238.634766 1086.736084 4121.70752 1513.242432 4163.76123 C 1766.467896 4188.729004 2009.159546 4275.816406 2240.353516 4378.632813 C 2498.709473 4493.52832 2744.959961 4633.296875 2990.425049 4773.056641 C 3221.269775 4904.492188 3451.668945 5046.871094 3704.667969 5132.169434 C 3934.507568 5209.65918 4174.464355 5223.59668 4410.972168 5168.250488 C 4515.793457 5143.720703 4646.832031 5114.467285 4727.118652 5036.994141 C 4785.088867 4981.054688 4820.116699 4871.847656 4767.98291 4801.19043 C 4717.515137 4732.791992 4610.453125 4723.946289 4533.333008 4732.855469 C 4412.287598 4746.838867 4305.941895 4816.287598 4197.754883 4866.786621 C 4077.383057 4922.972656 3936.098877 4971.205566 3805.55542 4920.294922 C 3690.212646 4875.312012 3597.077881 4756.974121 3650.954102 4631.153809 C 3697.234375 4523.072754 3823.336426 4464.254395 3935.804199 4461.286621 C 4082.233643 4457.42334 4218.898926 4523.17627 4352.70459 4573.712402 C 4474.568359 4619.738281 4609.763672 4658.452637 4740.230957 4627.836914 C 4832.415039 4606.205078 4936.106445 4546.696289 4967.747559 4451.824707 C 4995.902832 4367.404297 4947.366211 4276.47998 4873.892578 4232.899414 C 4797.112305 4187.356934 4700.418457 4190.003906 4615.20166 4203.111328 C 4388.608398 4237.96582 4181.044434 4344.116211 3947.955322 4344.996582 C 3853.279297 4345.354004 3726.118164 4336.890137 3659.104248 4259.049805 C 3592.46582 4181.645996 3633.900635 4070.110352 3717.674805 4025.484131 C 3839.05542 3960.824951 3988.773682 3983.909424 4115.818359 4015.851074 C 4284.429688 4058.243652 4457.695801 4061.912842 4630.666016 4050.889404 C 4723.756348 4044.956787 4793.796387 3996.12207 4833.637695 3911.749023 C 4854.520508 3867.524414 4864.070313 3820.759277 4873.993164 3773.23584 C 4886.538574 3713.151855 4906.807129 3654.777344 4934.383789 3599.934814 C 4988.250977 3492.806885 5068.878906 3399.509033 5166.838867 3330.358643 C 5266.90625 3259.722168 5377.979492 3212.594971 5468.429199 3127.433594 C 5636.918457 2968.795654 5752.896484 2750.717041 5797.115723 2524.315918 C 5841.235352 2298.422119 5816.042969 2063.70874 5744.578125 1846.125488 C 5673.216797 1628.856445 5560.619629 1426.863281 5398.73291 1264.163574 C 5246.333496 1110.999023 5058.756348 994.244141 4856.095215 920.098145 C 4451.470215 772.061035 3973.654785 802.71582 3598.873291 1020.59375 C 3274.547607 1209.13916 3071.735596 1538.591309 3006.298096 1903.705078 C 2964.996826 2134.148438 2985.337402 2370.376953 3075.702637 2587.089355 C 3152.616699 2771.543701 3274.225098 2936.28833 3422.954102 3069.291504 C 3503.899902 3141.678711 3596.156494 3197.224121 3656.61499 3290.174072 C 3690.553711 3342.352539 3714.89917 3400.707275 3727.887207 3461.592529 C 3741.624512 3525.989502 3736.379639 3588.910645 3737.726074 3654.050537 C 3739.255615 3728.028564 3743.731934 3813.837891 3812.793213 3856.122559 C 3875.335938 3894.416504 3953.451172 3910.098145 4024.49707 3923.226807 C 4240.456055 3963.134521 4466.662598 3968.291504 4684.996094 3947.810059 C 4768.779785 3939.950928 4851.22168 3924.885254 4935.637695 3925.04248 C 5003.420898 3925.169189 5071.063965 3932.515869 5137.141113 3947.708008 C 5393.61084 4006.675537 5600.655762 4178.364258 5784.944824 4357.705566 C 5985.044922 4552.432617 6170.166504 4763.309082 6392.149414 4934.290039 C 6636.647949 5122.612793 6919.481934 5246.194824 7228.597656 5273.248047 C 7423.197266 5290.27832 7627.894531 5277.123535 7816.933105 5226.784668 C 8028.296387 5170.501465 8222.017578 5061.013672 8388.436523 4920.149902 C 8563.943359 4771.594727 8708.712891 4590.02832 8828.985352 4394.759277 C 8836.037109 4383.3125 8818.023438 4372.836914 8810.996094 4384.244629 C 8568.949219 4777.220703 8210.807617 5123.756348 7746.339844 5222.230469 C 7403.41748 5294.935059 7032.501465 5265.116211 6715.317871 5112.091309 C 6456.671387 4987.307617 6244.209961 4791.916992 6044.072266 4589.668945 C 5862.199707 4405.878418 5685.856445 4208.303223 5466.48291 4067.812988 C 5364.980469 4002.80957 5253.84668 3952.265137 5135.879395 3926.083252 C 4991.600098 3894.061523 4854.688965 3909.17334 4709.689453 3924.515625 C 4488.92041 3947.875244 4259.223145 3943.922119 4040.393555 3905.014404 C 3967.249756 3892.009277 3884.652832 3877.069824 3820.851563 3836.602051 C 3732.356689 3780.472168 3762.601074 3635.294922 3759.378174 3547.337158 C 3755.434082 3439.706787 3717.621826 3334.52832 3652.802734 3248.594482 C 3592.494873 3168.640869 3507.351807 3117.346436 3433.842285 3051.123291 C 3279.068115 2911.690674 3153.618164 2737.312744 3080.046631 2541.838135 C 2932.391357 2149.528076 3013.787842 1677.133789 3264.827393 1343.584473 C 3517.245605 1008.202637 3941.929443 845.739746 4354.105957 848.983398 C 4804.50293 852.527832 5255.905762 1071.442383 5520.288086 1439.283203 C 5793.078613 1818.822754 5895.772461 2360.665527 5686.469727 2791.105957 C 5633.421387 2900.202637 5562.647949 3001.135986 5478.318359 3088.347168 C 5430.916992 3137.368652 5376.720215 3179.274414 5319.080566 3215.570313 C 5267.337402 3248.153564 5211.756348 3273.867188 5161.457031 3308.804688 C 5075.208008 3368.713623 5001.375488 3445.996826 4946.410156 3535.543213 C 4918.985352 3580.221436 4896.359863 3627.888184 4879.021484 3677.365967 C 4861.384766 3727.696045 4853.866699 3779.733154 4840.397461 3831.061035 C 4826.998047 3882.126709 4805.686523 3933.096191 4768.605957 3971.604736 C 4724.106934 4017.818115 4668.227539 4028.270752 4606.560547 4031.351074 C 4500.385742 4036.654541 4393.271973 4038.135986 4287.422852 4026.678223 C 4180.555176 4015.110596 4078.83667 3975.37915 3971.920898 3966.749268 C 3834.024902 3955.618652 3614.329346 3983.306641 3605.407715 4159.885742 C 3596.279053 4340.5625 3831.504639 4368.128906 3962.870361 4365.652832 C 4182.145508 4361.52002 4379.838867 4268.255859 4592.224121 4228.118652 C 4691.520508 4209.353516 4817.456055 4201.175293 4896.987305 4276.14209 C 4940.981934 4317.612305 4967.885742 4381.367676 4949.376465 4441.215332 C 4931.672363 4498.462402 4883.20166 4541.338867 4832.407227 4569.816406 C 4562.196777 4721.30957 4281.659668 4479.518555 4014.606934 4444.924805 C 3843.827881 4422.801758 3591.617432 4518.953613 3615.02124 4730.356445 C 3625.272949 4822.956055 3699.623291 4895.46875 3781.074219 4932.370117 C 3882.0271 4978.107422 3993.231201 4965.895996 4095.661865 4931.085449 C 4221.152832 4888.438477 4331.752441 4810.272461 4458.039551 4770.490723 C 4544.43457 4743.275391 4707.256836 4728.35791 4759.204102 4826.061523 C 4787.932129 4880.094238 4766.132813 4956.25293 4730.701172 5001.759277 C 4692.512207 5050.808105 4632.962402 5077.37207 4575.914551 5097.924805 C 4453.228516 5142.124023 4323.796387 5171.859375 4193.534668 5180.280762 C 3939.793457 5196.68457 3697.210205 5122.242676 3471.002441 5012.719727 C 3224.741455 4893.487793 2991.464844 4747.273438 2752.222168 4614.844727 C 2516.418701 4484.319336 2275.608154 4360.625488 2022.275757 4267.45752 C 1623.312256 4120.730469 1174.06189 4072.683105 774.155029 4245.554688 C 598.305176 4321.570801 445.548706 4441.456543 337.680695 4600.433105 C 330.133057 4611.556641 348.175934 4621.992188 355.669647 4610.948242 L 355.669647 4610.948242 Z"/>
        </g>
    </g>
</svg>
