<?xml version="1.0" encoding="UTF-8"?>
<!-- Generated by Pixelmator Pro 3.6.8 -->
<svg width="9166" height="6108" viewBox="0 0 9166 6108" xmlns="http://www.w3.org/2000/svg">
    <g id="objects">
        <path id="path1" fill="#c62e3d" stroke="none" d="M 14929.292969 3351.188232 C 14234.289063 3286.996338 13531.739258 3292.28833 12841.417969 3401.674316 C 12305.071289 3486.597656 11783.383789 3637.534912 11275.662109 3828.635254 C 10835.863281 3994.058594 10407.080078 4187.587891 9966.500977 4351.103516 C 9530.170898 4513.143555 9080.308594 4639.531738 8615.700195 4684.032227 C 8043.960938 4738.681641 7469.185059 4672.582031 6913.233887 4535.003906 C 6741.998535 4492.671875 6572.324219 4443.833984 6404.384277 4389.878418 C 6171.386719 4315.016602 5950.532227 4216.300293 5722.912598 4127.560059 C 5718.401855 4125.825195 5713.804199 4124.003906 5709.207031 4122.268555 C 5808.964355 3892.65332 5885.907227 3652.108154 5948.277832 3411.823242 C 6047.600586 3029.188965 6112.746582 2630.680664 6108.148926 2234.514404 C 6103.291504 1823.687988 6011.688477 1348.756836 5698.710449 1057.20459 C 5350.16748 732.429688 4772.008789 766.173828 4472.736816 1139.353027 C 4358.840332 1281.35498 4293.087402 1454.23877 4282.765137 1634.061523 C 4078.825928 1202.503418 3756.740234 685.067383 3205.125732 792.804688 C 2667.737549 897.680176 2720.39209 1562.32373 2864.389893 1953.111816 C 3020.270996 2376.083008 3294.039551 2757.328857 3583.683105 3098.498535 C 3667.565674 3197.302002 3755.352295 3297.406006 3847.822998 3394.301025 C 3817.895996 3395.255127 3788.14209 3396.469727 3758.648438 3398.204102 C 3434.914307 3417.288086 3112.481445 3490.675049 2814.077637 3617.84375 C 2556.009766 3727.923584 2327.175293 3885.106445 2100.162109 4047.75415 C 1718.916382 4320.829102 1309.130249 4539.253906 826.825867 4507.591797 C 472.817657 4484.344238 135.551346 4354.919922 -213.685959 4300.791016 C -610.893188 4239.201172 -1006.105469 4274.767578 -1389 4382.591797 L -1389 4428.306641 C -1110.980957 4347.719727 -824.2005 4302.265625 -531.955017 4312.935059 C -193.040497 4325.25293 128.091278 4421.280273 456.769928 4493.972656 C 762.373962 4561.547852 1067.804565 4579.503906 1371.240356 4489.895996 C 1831.078003 4353.965332 2170.3396 4012.188721 2579.778076 3781.706055 C 2968.137207 3563.107422 3431.01123 3435.938721 3885.730713 3433.68335 C 4061.736816 3613.940186 4254.225586 3780.578369 4467.532715 3903.236328 C 4545.083008 3947.82373 4653.948242 4008.371826 4747.633301 3985.124023 C 4842.012207 3961.702881 4900.56543 3835.141113 4878.358887 3745.272949 C 4843.227051 3603.357422 4670.950684 3528.32251 4547.424805 3485.469971 C 4346.001953 3415.640137 4127.40332 3391.698242 3912.968994 3393.086426 C 3623.325439 3103.356445 3361.961914 2779.708984 3149.174805 2429.691406 C 2935.087158 2077.591309 2706.686768 1600.318359 2838.799805 1180.470215 C 2928.581299 895.424316 3211.892334 777.450684 3490.952148 844.591309 C 3772.180664 912.253418 3965.016357 1131.632324 4103.722168 1373.478516 C 4171.990723 1492.580078 4228.895508 1617.753906 4285.453613 1742.753906 C 4294.388672 1762.445313 4327.004395 1752.469727 4325.877441 1731.824219 C 4294.301758 1162.253906 4850.426758 731.475586 5393.973633 921.708496 C 5869.599121 1088.172852 6033.375 1651.237793 6060.265625 2105.610596 C 6082.559082 2481.73877 6030.511719 2862.637695 5948.01709 3228.964111 C 5880.615723 3527.975586 5790.487305 3825.512207 5667.481934 4107.348145 C 5292.828613 3980.353271 4714.930176 3964.999268 4579.520996 4427.786133 C 4501.362793 4694.875488 4668.695313 5041.683594 4983.060547 4986.773438 C 5229.851563 4943.748047 5404.990723 4686.808105 5523.224609 4488.248047 C 5585.85498 4382.852051 5641.892578 4273.29248 5692.20459 4160.956543 C 5862.746094 4224.888672 6027.21582 4307.470215 6199.058594 4366.977539 C 6510.388184 4474.802246 6827.616211 4566.665527 7150.395508 4633.373047 C 7658.030273 4738.334961 8179.630371 4778.064453 8695.679688 4718.990234 C 9125.070313 4669.805664 9541.361328 4553.393555 9946.201172 4404.711914 C 10356.681641 4253.948242 10756.230469 4075.599609 11163.848633 3917.549072 C 11625.160156 3738.679932 12096.967773 3588.003174 12582.829102 3491.62915 C 14075.979492 3195.47998 15620.395508 3410.435547 17079.974609 3781.098877 C 17285.908203 3833.406494 17490.800781 3889.270508 17695 3948.08374 L 17695 3902.97583 C 16790.763672 3643.26001 15867.012695 3437.846924 14929.292969 3351.188232 Z M 4317.983398 3471.157227 C 4479.763184 3501.084717 4716.318359 3553.39209 4812.866211 3704.155518 C 4874.802734 3800.790039 4811.651855 3957.10498 4687.258789 3944.440674 C 4574.229004 3932.90332 4463.628906 3854.398682 4373.413574 3791.334717 C 4226.206543 3688.54126 4091.230957 3567.878418 3962.933838 3442.617676 C 3960.158203 3439.842285 3957.382568 3437.066406 3954.606934 3434.377441 C 4077.178223 3437.239746 4198.881348 3449.123535 4317.983398 3471.157227 Z M 5571.455566 4310.592773 C 5455.649902 4537.172363 5290.833008 4834.795898 5035.802246 4927.787109 C 4916.787109 4971.159668 4783.979492 4943.748047 4696.887207 4848.588379 C 4546.037109 4683.771973 4582.209473 4402.542969 4732.019531 4250.564941 C 4923.639648 4056.255615 5233.234375 4035.783203 5484.796387 4095.984375 C 5541.007813 4109.430664 5596.003906 4126.519043 5650.393555 4145.69043 C 5625.32373 4201.293457 5599.213379 4256.376953 5571.455566 4310.592773 Z"/>
    </g>
</svg>
