<?xml version="1.0" encoding="UTF-8"?>
<!-- Generated by Pixelmator Pro 3.6.8 -->
<svg width="9166" height="6108" viewBox="0 0 9166 6108" xmlns="http://www.w3.org/2000/svg">
    <g id="objects">
        <path id="path1" fill="#c62e3d" stroke="none" d="M 16844.322266 3422.074951 C 16043.530273 3348.112061 15234.043945 3354.209473 14438.648438 3480.245117 C 13820.663086 3578.094971 13219.569336 3752.006592 12634.567383 3972.194336 C 12127.825195 4162.796875 11633.776367 4385.783691 11126.135742 4574.188477 C 10623.391602 4760.893066 10105.055664 4906.518555 9569.728516 4957.792969 C 8910.963867 5020.760742 8248.701172 4944.599609 7608.12793 4786.080078 C 7410.828125 4737.305176 7215.327637 4681.033691 7021.825684 4618.865234 C 6753.362793 4532.608887 6498.89209 4418.866699 6236.625977 4316.619141 C 6231.428711 4314.620117 6226.131348 4312.521484 6220.833984 4310.522461 C 6335.775879 4045.956787 6424.430176 3768.798096 6496.293945 3491.938965 C 6610.734863 3051.063721 6685.796875 2591.897705 6680.5 2135.430664 C 6674.902832 1662.071777 6569.356934 1114.850586 6208.740234 778.920898 C 5807.14502 404.711426 5140.983887 443.592285 4796.159668 873.573242 C 4664.926758 1037.189453 4589.165527 1236.388184 4577.271484 1443.582031 C 4342.291016 946.335938 3971.180176 350.140137 3335.603516 474.276367 C 2716.418945 595.115234 2777.087891 1360.925293 2943.003906 1811.195313 C 3122.611816 2298.547363 3438.05127 2737.823242 3771.781738 3130.922852 C 3868.432129 3244.765381 3969.580811 3360.106445 4076.126709 3471.749756 C 4041.644287 3472.849121 4007.361572 3474.248535 3973.378662 3476.24707 C 3600.368652 3498.23584 3228.85791 3582.792969 2885.033447 3729.318115 C 2587.684814 3856.153564 2324.019287 4037.26123 2062.452148 4224.666016 C 1623.176392 4539.306152 1151.016235 4790.977539 595.299744 4754.496094 C 187.407471 4727.709961 -201.19458 4578.585938 -603.589722 4516.217773 C -1061.256348 4445.253418 -1516.62439 4486.23291 -1957.799805 4610.469727 L -1957.799805 4663.142578 C -1637.463135 4570.290039 -1307.031494 4517.916992 -970.302917 4530.209961 C -579.801819 4544.402832 -209.790146 4655.046387 168.917084 4738.803711 C 521.037476 4816.664551 872.958008 4837.353516 1222.5802 4734.106445 C 1752.410278 4577.48584 2143.311279 4183.687012 2615.070801 3918.12207 C 3062.542969 3666.250488 3595.871582 3519.725342 4119.804199 3517.126465 C 4322.600586 3724.820557 4544.388184 3916.822754 4790.163086 4058.150879 C 4879.517578 4109.524902 5004.953613 4179.289063 5112.898438 4152.50293 C 5221.642578 4125.516602 5289.108398 3979.690674 5263.521973 3876.143555 C 5223.04248 3712.626953 5024.543457 3626.170654 4882.21582 3576.795654 C 4650.133789 3496.336914 4398.262207 3468.750977 4151.188477 3470.350342 C 3817.458008 3136.52002 3516.312012 2763.610107 3271.136475 2360.315674 C 3024.462158 1954.62207 2761.296387 1404.702637 2913.518799 920.949219 C 3016.966064 592.516113 3343.400146 456.584961 3664.936035 533.945801 C 3988.970703 611.906738 4211.158203 864.677246 4370.976563 1143.335449 C 4449.63623 1280.56543 4515.202637 1424.791992 4580.369629 1568.818848 C 4590.664551 1591.506836 4628.245117 1580.013184 4626.946289 1556.225098 C 4590.564453 899.959961 5231.337891 403.612305 5857.618652 622.800781 C 6405.640137 814.603027 6594.344238 1463.372559 6625.328125 1986.90625 C 6651.014648 2420.285156 6591.04541 2859.161377 6495.993652 3281.246826 C 6418.333008 3625.770996 6314.486328 3968.596191 6172.758301 4293.331055 C 5741.078613 4147.005859 5075.217285 4129.314453 4919.197266 4662.542969 C 4829.142578 4970.286133 5021.945313 5369.882813 5384.160156 5306.614746 C 5668.515625 5257.040039 5870.3125 4960.991211 6006.543457 4732.20752 C 6078.706543 4610.769531 6143.273926 4484.533691 6201.243652 4355.099121 C 6397.744141 4428.762207 6587.247559 4523.913574 6785.246582 4592.478516 C 7143.964355 4716.71582 7509.478027 4822.561523 7881.388184 4899.421875 C 8466.291016 5020.36084 9067.28418 5066.137207 9661.880859 4998.071777 C 10156.629883 4941.400879 10636.285156 4807.269531 11102.74707 4635.956543 C 11575.707031 4462.245117 12036.072266 4256.75 12505.733398 4074.64209 C 13037.261719 3868.547119 13580.883789 3694.935547 14140.698242 3583.892334 C 15861.124023 3242.666016 17640.617188 3490.340088 19322.359375 3917.422607 C 19559.640625 3977.692139 19795.71875 4042.059082 20031 4109.824219 L 20031 4057.850586 C 18989.128906 3758.603027 17924.771484 3521.923828 16844.322266 3422.074951 Z M 4617.850586 3560.304443 C 4804.255371 3594.787109 5076.816406 3655.056152 5188.060547 3828.767578 C 5259.424316 3940.111084 5186.660645 4120.21875 5043.333984 4105.626953 C 4913.100098 4092.333496 4785.665039 4001.879639 4681.718262 3929.216553 C 4512.104492 3810.776855 4356.583984 3671.747559 4208.758789 3527.420898 C 4205.560547 3524.2229 4202.362305 3521.024414 4199.164063 3517.926025 C 4340.39209 3521.224121 4480.620117 3534.916992 4617.850586 3560.304443 Z M 6062.115234 4527.51123 C 5928.682617 4788.579102 5738.779297 5131.504395 5444.929688 5238.649414 C 5307.799316 5288.624023 5154.776855 5257.040039 5054.428223 5147.395996 C 4880.616699 4957.492676 4922.294922 4633.458008 5094.907715 4458.34668 C 5315.694824 4234.460938 5672.413574 4210.873047 5962.265625 4280.237305 C 6027.033203 4295.72998 6090.400391 4315.419922 6153.068359 4337.508789 C 6124.183105 4401.575684 6094.098145 4465.042969 6062.115234 4527.51123 Z"/>
    </g>
</svg>
