<?xml version="1.0" encoding="UTF-8"?>
<!-- Generated by Pixelmator Pro 3.6.8 -->
<svg width="9166" height="6108" viewBox="0 0 9166 6108" xmlns="http://www.w3.org/2000/svg">
    <g id="objects">
        <path id="path1" fill="#c62e3d" stroke="none" d="M 7838.208008 4557.916504 C 7504.375 4527.083008 7166.916992 4529.625 6835.333496 4582.166504 C 6577.708496 4622.958008 6327.125 4695.458008 6083.25 4787.25 C 5872 4866.708008 5666.041504 4959.666504 5454.416992 5038.208496 C 5244.833496 5116.041504 5028.75 5176.75 4805.583496 5198.125 C 4530.958496 5224.375 4254.875 5192.625 3987.833496 5126.541504 C 3905.583496 5106.208496 3824.083496 5082.75 3743.416504 5056.833008 C 3631.5 5020.875 3525.416504 4973.458008 3416.083252 4930.833008 C 3413.916748 4930 3411.708252 4929.125 3409.5 4928.291504 C 3457.416748 4818 3494.375 4702.458008 3524.333496 4587.041504 C 3572.041504 4403.25 3603.333252 4211.833008 3601.125 4021.541748 C 3598.791748 3824.208496 3554.791748 3596.083496 3404.458252 3456.041504 C 3237.041748 3300.041504 2959.333252 3316.25 2815.583252 3495.5 C 2760.875 3563.708252 2729.291748 3646.75 2724.333496 3733.124756 C 2626.375 3525.833252 2471.666748 3277.291748 2206.708252 3329.041504 C 1948.583252 3379.416748 1973.874878 3698.666748 2043.041748 3886.375 C 2117.916504 4089.541748 2249.416504 4272.666504 2388.541748 4436.541504 C 2428.833252 4484 2471 4532.083008 2515.416748 4578.625 C 2501.041748 4579.083496 2486.75 4579.666992 2472.583252 4580.5 C 2317.083252 4589.666504 2162.208252 4624.916504 2018.875122 4686 C 1894.916748 4738.875 1785.000122 4814.375 1675.958252 4892.5 C 1492.833496 5023.666992 1295.999878 5128.583496 1064.333374 5113.375 C 894.291687 5102.208008 732.291687 5040.041504 564.541626 5014.041992 C 373.750061 4984.458008 183.916733 5001.541992 0 5053.333496 L 0 5075.291504 C 133.541611 5036.583008 271.291595 5014.75 411.666626 5019.875 C 574.458313 5025.791504 728.708374 5071.916504 886.583435 5106.833008 C 1033.375 5139.291504 1180.083252 5147.916504 1325.833374 5104.875 C 1546.708374 5039.583008 1709.666748 4875.416504 1906.333374 4764.708008 C 2092.875 4659.708008 2315.208496 4598.625 2533.625 4597.541504 C 2618.166504 4684.125 2710.625 4764.166504 2813.083496 4823.083008 C 2850.333496 4844.5 2902.625 4873.583008 2947.625 4862.416504 C 2992.958252 4851.166504 3021.083252 4790.375 3010.416748 4747.208008 C 2993.541748 4679.041504 2910.791748 4643 2851.458252 4622.416504 C 2754.708252 4588.875 2649.708252 4577.375 2546.708496 4578.041504 C 2407.583252 4438.875 2282.041748 4283.416504 2179.833252 4115.291504 C 2077 3946.166504 1967.291748 3716.916748 2030.75 3515.25 C 2073.875 3378.333252 2209.958496 3321.666504 2344 3353.916504 C 2479.083252 3386.416748 2571.708496 3491.791504 2638.333496 3607.958252 C 2671.125 3665.166504 2698.458252 3725.291504 2725.625 3785.333252 C 2729.916748 3794.791504 2745.583252 3790 2745.041748 3780.083252 C 2729.875 3506.5 2997 3299.583252 3258.083252 3390.958252 C 3486.541748 3470.916504 3565.208496 3741.375 3578.125 3959.625 C 3588.833252 4140.291504 3563.833252 4323.25 3524.208252 4499.208496 C 3491.833252 4642.833008 3448.541748 4785.75 3389.458252 4921.125 C 3209.5 4860.125 2931.916504 4852.75 2866.875 5075.041504 C 2829.333252 5203.333496 2909.708496 5369.916504 3060.708252 5343.541504 C 3179.25 5322.875 3263.375 5199.458496 3320.166748 5104.083496 C 3350.25 5053.458008 3377.166748 5000.833008 3401.333252 4946.875 C 3483.25 4977.583496 3562.25 5017.25 3644.791748 5045.833008 C 3794.333496 5097.625 3946.708496 5141.75 4101.75 5173.791504 C 4345.583496 5224.208496 4596.125 5243.291504 4844 5214.916504 C 5050.250488 5191.291504 5250.208496 5135.375 5444.666504 5063.958008 C 5641.833496 4991.541504 5833.75 4905.875 6029.541992 4829.958008 C 6251.125 4744.041504 6477.749512 4671.666504 6711.124512 4625.375 C 7428.333496 4483.125 8170.166992 4586.375 8871.25 4764.416504 C 8970.166992 4789.541992 9068.583008 4816.375 9166.666992 4844.625 L 9166.666992 4822.958008 C 8732.333008 4698.208008 8288.625 4599.541504 7838.208008 4557.916504 Z M 2741.25 4615.541504 C 2818.958252 4629.916992 2932.583252 4655.041504 2978.958496 4727.458008 C 3008.708496 4773.875 2978.375 4848.958008 2918.625 4842.875 C 2864.333252 4837.333008 2811.208252 4799.625 2767.875 4769.333008 C 2697.166748 4719.958008 2632.333496 4662 2570.708252 4601.833008 C 2569.375 4600.5 2568.041748 4599.166504 2566.708496 4597.875 C 2625.583496 4599.25 2684.041504 4604.958008 2741.25 4615.541504 Z M 3343.333496 5018.75 C 3287.708252 5127.583496 3208.541504 5270.541504 3086.041748 5315.208008 C 3028.875 5336.041504 2965.083252 5322.875 2923.25 5277.166504 C 2850.791748 5198 2868.166504 5062.916504 2940.125 4989.916504 C 3032.166504 4896.583496 3180.875 4886.75 3301.708252 4915.666504 C 3328.708496 4922.125 3355.125 4930.333008 3381.25 4939.541992 C 3369.208252 4966.25 3356.666504 4992.708008 3343.333496 5018.75 Z"/>
    </g>
</svg>
